<?xml version="1.0" encoding="UTF-8"?>
<!DOCTYPE svg PUBLIC "-//W3C//DTD SVG 1.1//EN" "http://www.w3.org/Graphics/SVG/1.1/DTD/svg11.dtd">
<!-- Creator: CorelDRAW -->
<svg xmlns="http://www.w3.org/2000/svg" xml:space="preserve" width="268px" height="21px" version="1.1" style="shape-rendering:geometricPrecision; text-rendering:geometricPrecision; image-rendering:optimizeQuality; fill-rule:evenodd; clip-rule:evenodd"
viewBox="0 0 96.963 7.635"
 xmlns:xlink="http://www.w3.org/1999/xlink"
 xmlns:xodm="http://www.corel.com/coreldraw/odm/2003">
 <defs>
  <style type="text/css">
   <![CDATA[
    .fil0 {fill:#F58545}
   ]]>
  </style>
 </defs>
 <g id="Layer_x0020_1">
  <metadata id="CorelCorpID_0Corel-Layer"/>
  <path class="fil0" d="M86.079 7.635l-0.226 0c0.218,-0.001 0.396,-0.111 0.396,-0.248 0.011,-0.023 0.017,-0.048 0.017,-0.072 0,-0.127 -0.154,-0.233 -0.357,-0.246l-3.507 0 -9.221 -0.353 -0.679 0c-0.27,0.031 -0.545,0.047 -0.82,0.047 -0.275,0 -0.55,-0.016 -0.82,-0.047 0.348,-0.017 0.697,-0.027 1.046,-0.027 0.35,0 0.699,0.01 1.046,0.027l3.734 0 9.73 0c0.116,0.025 0.239,0.039 0.363,0.039 0.508,0 0.948,-0.223 1.052,-0.534 0.021,-0.034 0.033,-0.07 0.033,-0.106 0,-0.037 -0.012,-0.073 -0.033,-0.106l-1.585 0 -3.62 -0.248 -3.507 0 1.98 0c0.262,-0.016 0.528,-0.025 0.792,-0.025 0.264,0 0.53,0.009 0.792,0.025l0.339 0 1.188 0 2.602 0 1.414 0 -5.43 0c0.407,0.064 0.825,0.097 1.244,0.097 0.42,0 0.838,-0.033 1.245,-0.097 0.748,-0.146 1.529,-0.22 2.312,-0.22 0.153,0 0.309,0.003 0.46,0.008 0.319,0.017 0.641,0.025 0.962,0.025 0.32,0 0.642,-0.008 0.96,-0.025l0.567 0c0.014,0 0.028,0 0.042,0 0.46,0 0.913,-0.073 1.315,-0.212 0.661,-0.238 1.412,-0.363 2.175,-0.363 0.124,0 0.248,0.003 0.371,0.01l2.489 0c0.015,-0.029 0.023,-0.059 0.023,-0.089 0,-0.03 -0.008,-0.06 -0.023,-0.088l0 -0.495c0,-0.001 0,-0.002 0,-0.002 0,-0.123 -0.144,-0.228 -0.339,-0.245l-1.358 0c-0.963,-0.012 -1.936,-0.073 -2.886,-0.176 -2.822,-0.4 -5.711,-0.602 -8.604,-0.602 -0.014,0 -0.038,0 -0.052,0 -0.099,0.019 -0.204,0.029 -0.309,0.029 -0.105,0 -0.21,-0.01 -0.311,-0.029 -0.344,-0.332 -0.934,-0.532 -1.567,-0.532 -0.158,0 -0.317,0.013 -0.47,0.037l-2.715 0c-2.15,0 -4.413,0 -6.619,0 -2.206,0 -5.657,0 -8.938,-0.282 -3.281,-0.283 -5.26,-0.283 -8.145,-0.601 -1.092,-0.155 -2.214,-0.234 -3.335,-0.234 -0.34,0 -0.683,0.008 -1.021,0.022l-1.301 0c-0.73,0.118 -1.485,0.179 -2.241,0.179 -1.172,0 -2.335,-0.145 -3.416,-0.427 -0.332,-0.129 -0.715,-0.197 -1.106,-0.197 -0.654,0 -1.27,0.191 -1.666,0.515 -0.108,0.026 -0.223,0.039 -0.339,0.039 -0.116,0 -0.231,-0.013 -0.34,-0.039l-0.848 0c-0.553,-0.09 -1.125,-0.137 -1.697,-0.137 -0.572,0 -1.144,0.047 -1.697,0.137l-0.397 0 45.991 0 -0.453 -0.035c-0.184,-0.031 -0.374,-0.047 -0.565,-0.047 -0.191,0 -0.382,0.016 -0.566,0.047 -0.655,0.053 -1.319,0.08 -1.98,0.08 -0.661,0 -1.324,-0.027 -1.98,-0.08 -0.672,-0.074 -1.356,-0.112 -2.039,-0.112 -1.228,0 -2.451,0.122 -3.618,0.36l-4.865 -0.001 6.053 0 9.334 0c-2.843,-0.066 -5.657,-0.426 -8.314,-1.06 -1.039,-0.233 -2.126,-0.376 -3.226,-0.424l-9.73 -0.318 -7.014 0c-1.188,-0.177 -2.093,-0.177 -3.168,-0.177l-4.299 0c-1.811,0 -3.677,0 -5.657,0 -5.035,0.389 -10.692,0.389 -15.726,0.353l-0.623 0c-4.878,0.027 -9.762,0.365 -14.537,0.991 -0.452,0 -1.244,0 -1.244,0.742 -0.004,0.029 -0.006,0.058 -0.006,0.088 0,0.029 0.002,0.059 0.005,0.088l-0.396 0.212c-0.576,0.159 -1.187,0.267 -1.81,0.318l-2.829 0.106 -1.471 0c-0.194,0.018 -0.339,0.122 -0.339,0.245 0,0.001 0,0.002 0,0.003 -0.095,0.047 -0.151,0.118 -0.151,0.194 0,0.076 0.056,0.148 0.151,0.195l1.697 0.53 3.055 0.99c2.877,0.95 6.079,1.473 9.333,1.519l3.225 0c0.588,-0.017 1.189,-0.03 1.782,-0.03 0.593,0 1.194,0.013 1.783,0.03l14.029 0.495 5.147 0 41.917 0c2.579,0.306 5.209,0.462 7.84,0.462 1.044,0 4.178,-0.1 3.137,-0.073l-7.017 0.177z"/>
 </g>
</svg>
