<?xml version="1.0" encoding="UTF-8"?>
<!DOCTYPE svg PUBLIC "-//W3C//DTD SVG 1.1//EN" "http://www.w3.org/Graphics/SVG/1.1/DTD/svg11.dtd">
<!-- Creator: CorelDRAW -->
<svg xmlns="http://www.w3.org/2000/svg" xml:space="preserve" width="14px" height="1014px" version="1.1" style="shape-rendering:geometricPrecision; text-rendering:geometricPrecision; image-rendering:optimizeQuality; fill-rule:evenodd; clip-rule:evenodd"
viewBox="0 0 0.213 15.311"
 xmlns:xlink="http://www.w3.org/1999/xlink"
 xmlns:xodm="http://www.corel.com/coreldraw/odm/2003">
 <defs>
  <style type="text/css">
   <![CDATA[
    .fil0 {fill:#F58545}
   ]]>
  </style>
 </defs>
 <g id="Layer_x0020_1">
  <metadata id="CorelCorpID_0Corel-Layer"/>
  <path class="fil0" d="M0.093 15.155c0,-1.262 -0.01,-2.524 -0.031,-3.787 0,-0.213 0,-0.445 0,-0.637 0,-1.781 0,-3.575 0,-5.381 0,-1.251 0,-2.508 0,-3.759 0.009,-0.156 0.014,-0.316 0.014,-0.473 0,-0.373 -0.026,-0.749 -0.076,-1.118l0.213 0c-0.039,0.056 -0.06,0.122 -0.06,0.19 0,0.013 0.001,0.025 0.003,0.038 0,0.093 0.022,0.187 0.022,0.28l0 2.446c0,0.588 0,1.176 -0.031,1.782 -0.032,0.605 -0.027,1.122 -0.036,1.679 0,0.753 0,1.506 0.031,2.258l0 0.098c0.027,0.401 0.063,0.798 0.071,1.199 0,0.316 0,0.632 -0.022,0.944 -0.022,0.312 -0.062,0.584 -0.071,0.891 -0.009,0.307 0,0.61 0,0.918 0,0.378 0.085,0.761 0.093,1.14 -0.005,0.324 -0.029,0.65 -0.066,0.972 0,0.16 -0.036,0.32 -0.054,0.476 -0.007,-0.026 -0.01,-0.052 -0.01,-0.078 0,-0.027 0.003,-0.053 0.01,-0.078l0 0z"/>
 </g>
</svg>
