<?xml version="1.0" encoding="UTF-8"?>
<!DOCTYPE svg PUBLIC "-//W3C//DTD SVG 1.1//EN" "http://www.w3.org/Graphics/SVG/1.1/DTD/svg11.dtd">
<!-- Creator: CorelDRAW -->
<svg xmlns="http://www.w3.org/2000/svg" xml:space="preserve" width="1014px" height="14px" version="1.1" style="shape-rendering:geometricPrecision; text-rendering:geometricPrecision; image-rendering:optimizeQuality; fill-rule:evenodd; clip-rule:evenodd"
viewBox="0 0 969.064 13.51"
 xmlns:xlink="http://www.w3.org/1999/xlink"
 xmlns:xodm="http://www.corel.com/coreldraw/odm/2003">
 <defs>
  <style type="text/css">
   <![CDATA[
    .fil0 {fill:#F58545}
   ]]>
  </style>
 </defs>
 <g id="Layer_x0020_1">
  <metadata id="CorelCorpID_0Corel-Layer"/>
  <path class="fil0" d="M9.903 5.897c79.881,0 159.761,-0.658 239.641,-1.973 13.533,0 28.194,0 40.317,0 112.772,0 226.296,0 340.573,0 79.222,0 158.727,0 237.949,0 9.859,0.54 20,0.859 29.95,0.859 23.598,0 47.388,-1.594 70.731,-4.783l-0.031 13.51c-3.511,-2.472 -7.709,-3.801 -12.005,-3.801 -0.792,0 -1.59,0.046 -2.374,0.135 -5.921,0 -11.842,1.41 -17.762,1.41l-154.78 0c-37.215,0 -74.43,0 -112.772,-1.974 -38.343,-1.973 -71.048,-1.691 -106.289,-2.255 -47.646,0 -95.292,0 -142.939,1.973l-6.203 0c-25.373,1.692 -50.466,3.947 -75.839,4.511 -20.017,0 -40.034,0 -59.77,-1.409 -19.735,-1.41 -36.933,-3.947 -56.386,-4.511 -19.454,-0.564 -38.624,0 -58.078,0 -23.964,0 -48.21,5.356 -72.174,5.92 -20.492,-0.345 -41.106,-1.834 -61.495,-4.215 -10.15,0 -20.299,-2.256 -30.167,-3.383 1.639,-0.455 3.305,-0.68 4.97,-0.68 1.665,0 3.33,0.225 4.934,0.666l-0.001 0z"/>
 </g>
</svg>
