<?xml version="1.0" encoding="UTF-8"?>
<!DOCTYPE svg PUBLIC "-//W3C//DTD SVG 1.1//EN" "http://www.w3.org/Graphics/SVG/1.1/DTD/svg11.dtd">
<!-- Creator: CorelDRAW -->
<svg xmlns="http://www.w3.org/2000/svg" xml:space="preserve" width="867px" height="49px" version="1.1" style="shape-rendering:geometricPrecision; text-rendering:geometricPrecision; image-rendering:optimizeQuality; fill-rule:evenodd; clip-rule:evenodd"
viewBox="0 0 1013.024 57.648"
 xmlns:xlink="http://www.w3.org/1999/xlink"
 xmlns:xodm="http://www.corel.com/coreldraw/odm/2003">
 <defs>
  <style type="text/css">
   <![CDATA[
    .fil0 {fill:#F58545}
   ]]>
  </style>
 </defs>
 <g id="Layer_x0020_1">
  <metadata id="CorelCorpID_0Corel-Layer"/>
  <path class="fil0" d="M899.313 0l-2.365 0c2.286,0 4.139,0.837 4.139,1.869 0.118,0.176 0.178,0.359 0.178,0.543 0,0.959 -1.61,1.763 -3.724,1.859l-36.644 -0.001 -96.334 2.669 -7.092 0c-2.823,-0.236 -5.695,-0.357 -8.569,-0.357 -2.872,0 -5.745,0.121 -8.567,0.357 3.636,0.129 7.284,0.197 10.932,0.197 3.648,0 7.296,-0.068 10.927,-0.197l39.012 0 101.652 0c1.215,-0.195 2.497,-0.296 3.785,-0.296 5.315,0 9.905,1.683 10.992,4.033 0.227,0.254 0.345,0.526 0.345,0.801 0,0.274 -0.118,0.546 -0.345,0.801l-16.55 -0.001 -37.824 1.868 -36.642 0 20.685 0c2.741,0.123 5.518,0.194 8.276,0.194 2.757,0 5.534,-0.071 8.271,-0.195l3.547 0.001 12.411 0 27.186 0 14.775 0 -56.736 0c4.249,-0.482 8.62,-0.728 13.003,-0.728 4.383,0 8.753,0.246 13,0.727 7.813,1.105 15.977,1.667 24.162,1.667 1.592,0 3.223,-0.022 4.804,-0.062 3.334,-0.127 6.696,-0.188 10.043,-0.188 3.346,0 6.708,0.061 10.04,0.183l5.916 0.002c0.143,0.001 0.299,0 0.445,0 4.803,0 9.538,0.553 13.739,1.603 6.906,1.795 14.745,2.743 22.717,2.743 1.295,0 2.59,-0.028 3.878,-0.076l26.004 0.001c0.158,0.215 0.239,0.441 0.239,0.667 0,0.227 -0.081,0.453 -0.237,0.668l0 3.736c0,0.006 0,0.013 0,0.019 0,0.929 -1.511,1.717 -3.546,1.849l-14.186 0c-10.063,0.089 -20.227,0.549 -30.147,1.329 -29.49,3.016 -59.666,4.542 -89.892,4.542 -0.149,0 -0.397,0 -0.547,0 -1.031,-0.143 -2.128,-0.217 -3.228,-0.217 -1.101,0 -2.198,0.074 -3.251,0.217 -3.593,2.505 -9.757,4.02 -16.369,4.02 -1.655,0 -3.308,-0.096 -4.908,-0.283l-28.369 0c-22.458,0 -46.098,0 -69.147,0 -23.05,0 -59.101,0 -93.379,2.135 -34.277,2.135 -54.964,2.135 -85.105,4.537 -11.401,1.167 -23.128,1.765 -34.835,1.765 -3.551,0 -7.14,-0.061 -10.671,-0.165l-13.594 0.001c-7.629,-0.895 -15.513,-1.356 -23.409,-1.356 -12.245,0 -24.4,1.1 -35.695,3.223 -3.46,0.975 -7.469,1.494 -11.554,1.494 -6.826,0 -13.268,-1.442 -17.401,-3.895 -1.131,-0.193 -2.335,-0.292 -3.545,-0.292 -1.211,0 -2.414,0.099 -3.546,0.292l-8.866 0c-5.776,0.685 -11.753,1.035 -17.729,1.035 -5.977,0 -11.954,-0.35 -17.727,-1.034l-4.142 -0.001 480.487 0 -4.729 0.268c-1.922,0.235 -3.912,0.357 -5.908,0.357 -1.996,0 -3.987,-0.122 -5.912,-0.358 -6.847,-0.4 -13.775,-0.603 -20.683,-0.603 -6.908,0 -13.836,0.203 -20.685,0.602 -7.021,0.561 -14.17,0.85 -21.304,0.85 -12.828,0 -25.61,-0.927 -37.798,-2.719l-50.826 0.002 63.237 0 97.516 0c-29.699,0.499 -59.108,3.221 -86.86,8.006 -10.851,1.763 -22.208,2.842 -33.703,3.2l-101.652 2.402 -73.287 0.004c-12.412,1.334 -21.867,1.334 -33.096,1.334l-44.917 0c-18.913,0 -38.416,0 -59.101,0 -52.599,-2.936 -111.699,-2.936 -164.299,-2.669l-6.501 0c-50.97,-0.197 -101.988,-2.753 -151.875,-7.48 -4.728,0 -13.003,0 -13.003,-5.604 -0.042,-0.215 -0.061,-0.439 -0.061,-0.661 0,-0.222 0.019,-0.446 0.051,-0.667l-4.137 -1.601c-6.014,-1.201 -12.397,-2.013 -18.913,-2.402l-29.55 -0.801 -15.367 0c-2.035,-0.133 -3.546,-0.92 -3.546,-1.849 0,-0.006 0,-0.013 0,-0.02 -0.995,-0.354 -1.577,-0.895 -1.577,-1.467 0,-0.573 0.582,-1.114 1.578,-1.468l17.73 -4.004 31.914 -7.473c30.055,-7.174 63.516,-11.126 97.513,-11.477l33.689 0.001c6.145,0.133 12.424,0.228 18.618,0.228 6.194,0 12.472,-0.095 18.625,-0.228l146.569 -3.737 53.772 0.001 437.934 0c26.944,-2.306 54.425,-3.489 81.907,-3.489 10.906,0 43.648,0.753 32.774,0.555l-73.31 -1.336z"/>
 </g>
</svg>
