<?xml version="1.0" encoding="UTF-8"?>
<!DOCTYPE svg PUBLIC "-//W3C//DTD SVG 1.1//EN" "http://www.w3.org/Graphics/SVG/1.1/DTD/svg11.dtd">
<!-- Creator: CorelDRAW -->
<svg xmlns="http://www.w3.org/2000/svg" xml:space="preserve" width="882px" height="12px" version="1.1" style="shape-rendering:geometricPrecision; text-rendering:geometricPrecision; image-rendering:optimizeQuality; fill-rule:evenodd; clip-rule:evenodd"
viewBox="0 0 776.027 10.837"
 xmlns:xlink="http://www.w3.org/1999/xlink"
 xmlns:xodm="http://www.corel.com/coreldraw/odm/2003">
 <defs>
  <style type="text/css">
   <![CDATA[
    .fil0 {fill:#F58545}
   ]]>
  </style>
 </defs>
 <g id="Layer_x0020_1">
  <metadata id="CorelCorpID_0Corel-Layer"/>
  <path id="divider-5" class="fil0" d="M768.098 4.723l-191.905 -1.58 -495.568 0c-7.894,0.432 -16.016,0.687 -23.983,0.687 -18.898,0 -37.949,-1.276 -56.642,-3.83l0 10.837c2.836,-1.997 6.197,-3.062 9.639,-3.062 0.634,0 1.273,0.037 1.901,0.108 4.741,0 9.482,1.129 14.223,1.129l123.948 0.001c29.802,0 59.604,0 90.308,-1.581l85.116 -1.806c38.156,0 76.311,0 114.466,1.58l4.967 0c20.319,1.355 40.413,3.161 60.732,3.613 16.03,0 32.06,0 47.864,-1.129 15.804,-1.129 29.576,-3.161 45.154,-3.612 15.579,-0.452 30.931,0 46.509,0 19.191,0 38.607,4.289 57.798,4.741 16.412,-0.277 32.917,-1.469 49.244,-3.376l24.158 -2.709c-1.311,-0.364 -2.644,-0.544 -3.978,-0.544 -1.333,0 -2.667,0.18 -3.951,0.533l0 0z"/>
 </g>
</svg>
