<?xml version="1.0" encoding="UTF-8"?>
<!DOCTYPE svg PUBLIC "-//W3C//DTD SVG 1.1//EN" "http://www.w3.org/Graphics/SVG/1.1/DTD/svg11.dtd">
<!-- Creator: CorelDRAW -->
<svg xmlns="http://www.w3.org/2000/svg" xml:space="preserve" width="719px" height="39px" version="1.1" style="shape-rendering:geometricPrecision; text-rendering:geometricPrecision; image-rendering:optimizeQuality; fill-rule:evenodd; clip-rule:evenodd"
viewBox="0 0 697.085 38.198"
 xmlns:xlink="http://www.w3.org/1999/xlink"
 xmlns:xodm="http://www.corel.com/coreldraw/odm/2003">
 <defs>
  <style type="text/css">
   <![CDATA[
    .fil0 {fill:#F58545}
   ]]>
  </style>
 </defs>
 <g id="Layer_x0020_1">
  <metadata id="CorelCorpID_0Corel-Layer"/>
  <path class="fil0" d="M618.838 38.198l-1.627 0c1.573,-0.001 2.848,-0.555 2.848,-1.239 0.081,-0.116 0.123,-0.238 0.123,-0.359 0,-0.636 -1.109,-1.169 -2.563,-1.232l-25.216 0 -66.289 -1.768 -4.881 0c-1.942,0.157 -3.919,0.237 -5.896,0.237 -1.977,0 -3.953,-0.08 -5.895,-0.237 2.502,-0.085 5.012,-0.131 7.522,-0.131 2.51,0 5.021,0.046 7.519,0.131l26.845 0 69.95 0c0.836,0.129 1.717,0.196 2.604,0.196 3.658,0 6.816,-1.115 7.564,-2.672 0.156,-0.169 0.237,-0.349 0.237,-0.531 0,-0.182 -0.081,-0.362 -0.237,-0.53l-11.388 0 -26.028 -1.238 -25.215 0 14.235 0c1.886,-0.081 3.797,-0.128 5.694,-0.128 1.897,0 3.808,0.047 5.692,0.129l2.441 -0.001 8.54 0 18.708 0 10.167 0 -39.042 0c2.924,0.319 5.931,0.483 8.948,0.483 3.016,0 6.023,-0.164 8.946,-0.482 5.375,-0.732 10.993,-1.105 16.626,-1.105 1.095,0 2.217,0.015 3.306,0.042 2.293,0.083 4.607,0.124 6.91,0.124 2.303,0 4.616,-0.041 6.909,-0.121l4.07 -0.002c0.1,0 0.207,0.001 0.307,0.001 3.305,0 6.563,-0.367 9.454,-1.062 4.752,-1.19 10.146,-1.818 15.633,-1.818 0.89,0 1.781,0.018 2.668,0.05l17.894 0c0.109,-0.143 0.164,-0.293 0.164,-0.443 0,-0.15 -0.055,-0.299 -0.163,-0.442l0 -2.476c0,-0.004 0,-0.008 0,-0.012 0,-0.616 -1.04,-1.138 -2.44,-1.225l-9.762 0c-6.924,-0.059 -13.918,-0.364 -20.745,-0.881 -20.293,-1.998 -41.057,-3.01 -61.856,-3.01 -0.103,0 -0.274,0 -0.376,0 -0.71,0.096 -1.465,0.144 -2.222,0.144 -0.758,0 -1.513,-0.048 -2.237,-0.144 -2.473,-1.66 -6.714,-2.663 -11.264,-2.663 -1.139,0 -2.276,0.064 -3.377,0.187l-19.521 0c-15.454,0 -31.722,0 -47.582,0 -15.861,0 -40.669,0 -64.256,-1.414 -23.588,-1.415 -37.822,-1.415 -58.563,-3.007 -7.845,-0.773 -15.915,-1.169 -23.971,-1.169 -2.443,0 -4.913,0.04 -7.343,0.109l-9.354 0c-5.249,0.593 -10.675,0.898 -16.108,0.898 -8.427,0 -16.791,-0.729 -24.563,-2.135 -2.381,-0.646 -5.14,-0.99 -7.951,-0.99 -4.697,0 -9.13,0.955 -11.973,2.58 -0.779,0.128 -1.607,0.194 -2.44,0.194 -0.834,0 -1.661,-0.066 -2.44,-0.194l-6.101 0c-3.974,-0.453 -8.087,-0.685 -12.2,-0.685 -4.113,0 -8.226,0.232 -12.198,0.685l-2.85 0 330.634 0 -3.254 -0.177c-1.323,-0.156 -2.692,-0.236 -4.066,-0.236 -1.373,0 -2.743,0.08 -4.068,0.237 -4.712,0.264 -9.479,0.399 -14.232,0.399 -4.754,0 -9.521,-0.135 -14.234,-0.399 -4.831,-0.371 -9.751,-0.562 -14.66,-0.562 -8.827,0 -17.623,0.613 -26.01,1.801l-34.974 -0.002 43.515 0 67.103 0c-20.437,-0.33 -40.674,-2.134 -59.771,-5.305 -7.467,-1.168 -15.282,-1.883 -23.191,-2.12l-69.95 -1.591 -50.43 -0.003c-8.541,-0.884 -15.048,-0.884 -22.774,-0.884l-30.909 0c-13.014,0 -26.434,0 -40.668,0 -36.195,1.946 -76.863,1.946 -113.058,1.769l-4.474 0c-35.074,0.13 -70.18,1.824 -104.509,4.956 -3.253,0 -8.947,0 -8.947,3.713 -0.029,0.142 -0.042,0.291 -0.042,0.438 0,0.147 0.013,0.295 0.035,0.442l-2.847 1.061c-4.138,0.796 -8.53,1.334 -13.015,1.591l-20.334 0.531 -10.574 0c-1.4,0.088 -2.44,0.61 -2.44,1.226 0,0.004 0,0.008 0,0.012 -0.685,0.235 -1.085,0.593 -1.085,0.973 0,0.379 0.4,0.738 1.086,0.972l12.2 2.653 21.961 4.952c20.682,4.753 43.707,7.372 67.101,7.605l23.182 -0.001c4.229,-0.088 8.549,-0.151 12.812,-0.151 4.262,0 8.582,0.063 12.816,0.151l100.857 2.476 37.002 -0.001 301.352 0c18.541,1.528 37.452,2.312 56.362,2.312 7.506,0 30.036,-0.499 22.553,-0.368l-50.446 0.886z"/>
 </g>
</svg>
