<?xml version="1.0" encoding="UTF-8"?>
<!DOCTYPE svg PUBLIC "-//W3C//DTD SVG 1.1//EN" "http://www.w3.org/Graphics/SVG/1.1/DTD/svg11.dtd">
<!-- Creator: CorelDRAW -->
<svg xmlns="http://www.w3.org/2000/svg" xml:space="preserve" width="127px" height="115px" version="1.1" style="shape-rendering:geometricPrecision; text-rendering:geometricPrecision; image-rendering:optimizeQuality; fill-rule:evenodd; clip-rule:evenodd"
viewBox="0 0 44.98 40.72"
 xmlns:xlink="http://www.w3.org/1999/xlink"
 xmlns:xodm="http://www.corel.com/coreldraw/odm/2003">
 <defs>
  <style type="text/css">
   <![CDATA[
    .fil1 {fill:black}
    .fil0 {fill:#2B2B2A}
   ]]>
  </style>
 </defs>
 <g id="Layer_x0020_1">
  <metadata id="CorelCorpID_0Corel-Layer"/>
  <path class="fil0" d="M0 21.214l9.092 0 0 16.173 -9.092 0 0 -16.173zm10.92 14.815l0 -13.518 6.083 0c2.574,0.459 5.152,1.861 7.73,3.48l4.721 0c2.139,0.129 3.258,2.296 1.18,3.718 -1.656,1.217 -3.839,1.148 -6.083,0.947 -1.542,-0.077 -1.607,1.998 0,2.006 0.56,0.044 1.169,-0.089 1.7,-0.089 2.796,-0.004 5.096,-0.535 6.506,-2.743l0.705 -1.651 7.025 -3.485c3.516,-1.156 6.014,2.522 3.424,5.08 -5.088,3.702 -10.304,6.747 -15.642,9.208 -3.879,2.357 -7.754,2.276 -11.629,0l-5.72 -2.952 0 0 0 -0.001z"/>
  <g id="_105553535889440">
   <path class="fil1" d="M32.258 18.716c0.119,-0.177 0.33,-0.371 0.496,-0.578 0.175,-0.216 0.309,-0.374 0.476,-0.597l0.877 -1.33 1.61 0c-0.074,0.276 -0.495,0.585 -0.7,0.791 -0.244,0.246 -0.537,0.45 -0.825,0.667 -0.17,0.128 -0.258,0.17 -0.426,0.289 -0.295,0.21 -1.207,0.688 -1.508,0.758zm4.234 -3.459l-1.908 0c0.294,-0.556 0.521,-1.338 0.694,-1.929 0.19,-0.646 0.317,-1.504 0.379,-2.245l2.147 0c0,0.641 -0.254,1.722 -0.445,2.298l-0.609 1.419c-0.102,0.181 -0.204,0.255 -0.258,0.457zm-1.729 -9.302l1.729 0c0.012,0.043 0.664,1.162 0.87,1.873 0.176,0.607 0.442,1.578 0.442,2.301l-2.147 0c0,-0.97 -0.173,-1.844 -0.405,-2.695 -0.055,-0.201 -0.079,-0.332 -0.138,-0.518 -0.047,-0.146 -0.112,-0.349 -0.164,-0.492l-0.187 -0.469zm-5.128 -4.055c1.807,0.151 1.483,0.283 2.251,1.089 0.314,0.329 1.284,1.575 1.386,2.012l-3.637 0 0 -3.101zm-4.652 3.101c0.119,-0.507 1.717,-2.516 2.222,-2.847 0.183,-0.12 0.417,-0.115 0.682,-0.153 0.177,-0.025 0.596,-0.084 0.794,-0.101l0.001 2.506c0.006,0.435 0.11,0.585 -0.292,0.603 -1.078,0.046 -2.31,-0.008 -3.407,-0.008zm7.812 -2.266c0.228,0.053 0.608,0.29 0.833,0.42 0.387,0.223 1.159,0.823 1.478,1.145 0.19,0.192 0.541,0.439 0.611,0.701l-1.431 0c-0.067,-0.251 -0.516,-0.923 -0.68,-1.169l-0.811 -1.097zm-8.825 2.266l-1.431 0c0.478,-0.714 1.347,-1.344 2.062,-1.813 0.186,-0.123 0.646,-0.403 0.86,-0.453 -0.702,1.048 -0.798,0.956 -1.491,2.266zm-3.161 -0.835l1.828 0.975c0.356,0.169 0.533,0.223 0.905,0.467 0.537,0.351 0.542,0.561 0.845,0.586 0.014,-0.169 -0.001,-0.239 0.179,-0.239l4.115 0 0 1.908c0.265,-0.022 0.683,-0.113 0.954,-0.119l0 -1.789 4.054 0c0.209,0 0.361,0.537 0.47,0.843 0.335,0.944 0.604,2.291 0.604,3.331l-1.908 0c-0.063,0.235 0.006,-0.003 -0.089,0.21l-0.269 0.744 2.266 0c0,1.203 -0.583,3.134 -1.133,4.174l-2.087 0 -0.716 0.954 2.266 0c-0.368,0.695 -0.973,1.389 -1.498,1.961 -0.008,0.009 -0.02,0.022 -0.029,0.031 -1.183,1.287 -0.996,0.891 -1.931,1.109l0 -2.325c-0.37,0.008 -0.584,0.17 -0.954,0.178l0 2.147c-0.947,-0.079 -0.969,-0.102 -1.417,-0.551 -0.264,-0.265 -0.762,-0.821 -1.028,-0.999 -0.266,0.554 -0.089,1.964 0.034,2.53 0.154,0.713 -0.084,0.532 1.617,0.827 0.902,0.157 1.795,0.099 2.692,-0.028 1.798,-0.255 3.953,-1.13 5.331,-2.361l1.312 -1.312c0.671,-0.747 1.527,-2.272 1.857,-3.271 0.267,-0.808 0.582,-1.844 0.572,-2.886 -0.006,-0.689 0.118,-0.184 0.01,-1.14 -0.093,-0.825 0.056,-0.553 -0.251,-1.956 -0.378,-1.724 -1.489,-3.74 -2.723,-4.969 -0.165,-0.163 -0.27,-0.29 -0.459,-0.436 -1.094,-0.846 -1.531,-1.33 -3.151,-1.976 -0.432,-0.172 -0.864,-0.308 -1.308,-0.422l-1.451 -0.278c-2.633,-0.399 -5.949,0.661 -7.826,2.307 -0.175,0.153 -0.27,0.222 -0.446,0.389 -0.044,0.042 -0.054,0.049 -0.094,0.084l-0.128 0.111c-0.038,0.034 -0.084,0.078 -0.121,0.117l-0.113 0.125c-0.207,0.238 -0.702,0.654 -0.781,0.949z"/>
   <path class="fil1" d="M28.263 11.739l-0.059 0.06 0.059 -0.06zm0 0l0.116 -0.068 -0.116 0.068zm-7.513 -3.16l0 0zm0 0c0.255,0.171 0.708,0.836 0.869,1.098 0.85,1.374 1.161,3.008 1.423,4.659l0.155 1.814c0.001,0.71 0.102,1.413 0.023,1.935 -0.047,0.31 -0.036,0.669 -0.03,0.994 0.007,0.403 0.154,0.436 0.424,0.589 0.239,0.136 1.13,0.602 1.369,0.658 -0.34,-1.462 0.077,-2.894 0.597,-3.876 1.623,0 3.643,0.235 4.914,-1.049l0.142 -0.156c0.686,-0.741 0.851,-1.421 1.001,-2.517 0.165,-1.201 0.057,-2.093 0.799,-3.137 0.142,-0.2 0.313,-0.339 0.493,-0.52 0.13,-0.13 0.453,-0.397 0.522,-0.492 -0.148,-0.071 -1.561,-0.18 -1.847,-0.181 -1.824,-0.009 -3.427,0.409 -4.773,1.432 -0.35,0.266 -0.699,0.679 -0.98,1.048 -0.975,1.281 -1.285,3.143 -1.285,4.916l0.704 -1.204c0.247,-0.393 0.508,-0.752 0.804,-1.104 0.407,-0.484 1.526,-1.546 2.13,-1.687l-0.751 0.621c-0.245,0.191 -0.472,0.452 -0.696,0.675 -0.309,0.307 -0.966,1.199 -1.189,1.554 -0.364,0.581 -0.654,1.135 -0.926,1.817 -0.246,0.618 -0.568,1.981 -0.672,2.131 0,-0.565 -0.063,-0.907 -0.06,-1.431l0.007 -3.094c0.099,-0.946 1.604,-3.746 0.11,-6.326 -0.777,-1.343 -2.06,-2.132 -3.455,-2.686 -0.385,-0.153 -0.728,-0.258 -1.115,-0.436 -0.964,-0.443 -2.009,-1.376 -2.106,-2.545 -0.23,0.154 -0.526,0.782 -0.658,1.072 -0.402,0.881 -0.659,1.671 -0.765,2.693 -0.199,1.933 0.15,3.935 1.231,5.55 0.99,1.479 2.562,2.21 4.194,2.724 1.222,0.385 1.023,0.196 1.012,-0.231 -0.078,-3.248 -1.506,-4.841 -1.615,-5.308z"/>
   <path class="fil1" d="M22.3 18.597l0 -3.161c-1.041,-0.086 -2.875,-1.199 -3.101,-1.252 0.454,0.945 0.406,1.277 1.278,2.48 0.181,0.25 1.379,1.814 1.823,1.933z"/>
  </g>
 </g>
</svg>
