<?xml version="1.0" encoding="UTF-8"?>
<!DOCTYPE svg PUBLIC "-//W3C//DTD SVG 1.1//EN" "http://www.w3.org/Graphics/SVG/1.1/DTD/svg11.dtd">
<!-- Creator: CorelDRAW -->
<svg xmlns="http://www.w3.org/2000/svg" xml:space="preserve" width="127px" height="114px" version="1.1" style="shape-rendering:geometricPrecision; text-rendering:geometricPrecision; image-rendering:optimizeQuality; fill-rule:evenodd; clip-rule:evenodd"
viewBox="0 0 22.159 19.892"
 xmlns:xlink="http://www.w3.org/1999/xlink"
 xmlns:xodm="http://www.corel.com/coreldraw/odm/2003">
 <defs>
  <style type="text/css">
   <![CDATA[
    .fil0 {fill:#100F11}
    .fil1 {fill:#101010}
    .fil2 {fill:#2B2B2A}
   ]]>
  </style>
 </defs>
 <g id="Layer_x0020_1">
  <metadata id="CorelCorpID_0Corel-Layer"/>
  <g id="_105553535931872">
   <path class="fil0" d="M14.622 3.376c1.011,-0.247 1.264,1.354 0.352,1.584 -1.038,0.261 -1.512,-1.3 -0.352,-1.584zm-2.504 5.57l0.798 -2.878 2.391 0.655 -0.583 2.162c0.387,0.166 0.646,0.263 1.087,0.097 0.437,-0.163 0.441,-0.389 0.688,-0.631 0.555,-0.542 0.663,0.684 1.636,0.694 0.219,-0.42 0.495,-1.695 0.655,-2.236 0.215,-0.726 0.143,-0.518 -0.808,-1.758 -0.431,-0.562 -0.839,-1.059 -1.271,-1.623 -0.243,-0.318 -1.071,-1.454 -1.284,-1.633l-5.135 1.875c-0.242,0.104 -0.183,0.042 -0.264,0.302l-1.163 4.116c-0.126,0.42 -0.121,0.561 0.206,0.759 0.674,0.408 1.272,0.21 1.659,-0.28 0.697,-0.881 0.717,0.17 1.388,0.379z"/>
   <path class="fil0" d="M15.957 0l-0.089 0c-0.504,0.329 -6.466,2.31 -6.943,2.637 0.062,0.259 0.329,1.035 0.455,1.195l6.101 -2.242 2.528 3.245c0.166,0.22 0.295,0.406 0.485,0.646 0.168,0.212 0.344,0.428 0.502,0.631 0.15,0.193 0.349,0.518 0.525,0.64l1.001 -0.787c-0.091,-0.234 -3.564,-4.663 -3.981,-5.192 -0.199,-0.252 -0.4,-0.467 -0.584,-0.773z"/>
   <path class="fil0" d="M6.734 9.343l0 0.219c0.474,0.442 1.422,-0.288 1.638,-0.494 0.273,0.285 0.748,0.619 1.385,0.625 0.771,0.006 1.059,-0.389 1.446,-0.642 0.759,0.934 1.983,0.764 2.775,0.017 0.885,0.794 2.016,0.881 2.771,-0.018 0.387,0.245 0.629,0.619 1.385,0.641 0.671,0.02 1.159,-0.34 1.45,-0.624 0.216,0.218 1.16,0.928 1.638,0.493l0 -0.218c-0.256,-0.225 -0.584,-0.075 -0.965,-0.343 -0.281,-0.199 -0.408,-0.571 -0.736,-0.613 -0.181,0.037 -0.154,0.271 -0.573,0.587 -0.227,0.172 -0.474,0.244 -0.81,0.236 -0.94,-0.021 -1.099,-0.803 -1.326,-0.829 -0.324,-0.039 -0.399,0.84 -1.448,0.83 -0.955,-0.009 -0.943,-0.647 -1.386,-0.833 -0.457,0.185 -0.431,0.854 -1.447,0.832 -0.994,-0.021 -1.063,-0.861 -1.388,-0.83 -0.33,0.159 -0.212,0.354 -0.582,0.585 -0.498,0.31 -1.111,0.358 -1.593,-0.014 -0.116,-0.09 -0.187,-0.154 -0.283,-0.282 -0.172,-0.232 -0.002,-0.136 -0.25,-0.278 -0.322,0.029 -0.453,0.407 -0.737,0.608 -0.378,0.267 -0.71,0.118 -0.964,0.345z"/>
   <path class="fil0" d="M18.639 3.191l0.451 -1.496 -1.52 -0.426c-0.27,0.421 -0.021,0.579 0.336,1.03 0.223,0.282 0.463,0.672 0.733,0.892z"/>
   <path class="fil1" d="M17.433 1.14c0.401,0.112 1.456,0.483 1.83,0.487l0.09 -0.367c-0.223,-0.139 -1.564,-0.532 -1.838,-0.502l-0.082 0.382z"/>
  </g>
  <path class="fil2" d="M0 10.282l4.479 0 0 7.968 -4.479 0 0 -7.968zm5.38 7.299l0 -6.66 2.996 0c1.269,0.227 2.539,0.917 3.809,1.715l2.325 0c1.054,0.063 1.606,1.131 0.582,1.832 -0.816,0.599 -1.891,0.565 -2.997,0.466 -0.76,-0.038 -0.791,0.984 0,0.988 0.276,0.022 0.576,-0.043 0.838,-0.043 1.377,-0.002 2.51,-0.264 3.205,-1.352l0.347 -0.813 3.461 -1.717c1.732,-0.57 2.963,1.242 1.687,2.502 -2.507,1.824 -5.077,3.324 -7.706,4.537 -1.911,1.161 -3.82,1.121 -5.729,0l-2.818 -1.455 0 0 0 0z"/>
 </g>
</svg>
