<?xml version="1.0" encoding="UTF-8"?>
<!DOCTYPE svg PUBLIC "-//W3C//DTD SVG 1.1//EN" "http://www.w3.org/Graphics/SVG/1.1/DTD/svg11.dtd">
<!-- Creator: CorelDRAW -->
<svg xmlns="http://www.w3.org/2000/svg" xml:space="preserve" width="127px" height="117px" version="1.1" style="shape-rendering:geometricPrecision; text-rendering:geometricPrecision; image-rendering:optimizeQuality; fill-rule:evenodd; clip-rule:evenodd"
viewBox="0 0 4221.161 3904.49"
 xmlns:xlink="http://www.w3.org/1999/xlink"
 xmlns:xodm="http://www.corel.com/coreldraw/odm/2003">
 <defs>
  <style type="text/css">
   <![CDATA[
    .fil1 {fill:black}
    .fil0 {fill:#2B2B2A}
   ]]>
  </style>
 </defs>
 <g id="Layer_x0020_1">
  <metadata id="CorelCorpID_0Corel-Layer"/>
  <path class="fil0" d="M0 2073.982l853.199 0 0 1517.769 -853.199 0 0 -1517.769zm1024.818 1390.367l0 -1268.656 570.822 0c241.564,43.1 483.479,174.647 725.42,326.62l443.043 0c200.725,12.097 305.817,215.473 110.757,348.917 -155.364,114.162 -360.26,107.743 -570.821,88.837 -144.788,-7.185 -150.83,187.498 0,188.252 52.546,4.158 109.627,-8.316 159.522,-8.316 262.354,-0.377 478.204,-50.273 610.517,-257.43l66.151 -154.987 659.282 -326.997c330.011,-108.497 564.39,236.639 321.319,476.696 -477.45,347.41 -966.984,633.191 -1467.874,864.165 -364.042,221.151 -727.681,213.589 -1091.346,0l-536.792 -277.088 0 0 0 -0.013z"/>
  <g id="_105553552335104">
   <path class="fil1" d="M1819.517 1017.922c74.542,-17.159 157.311,-70.208 184.005,-124.349 -38.527,-27.75 -38.263,-12.273 -59.354,-54.469l-13.705 -24.797c-155.742,39.055 -243.737,116.75 -297.59,246.488 -53.111,127.98 -61.377,323.719 -17.863,459.436 76.414,238.374 308.242,448.445 610.065,471.948 796.533,62.03 947.249,-1012.231 479.46,-1145.374 -68.035,90.194 -24.559,32.158 -100.457,81.727 25.4,9.786 42.195,23.842 65.648,35.563l75.848 26.405c-13.667,65.459 -47.898,120.329 -111.549,136.559 -88.372,22.536 -112.692,-5.665 -177.9,-32.51 -9.987,84.679 -16.569,262.215 -117.177,223.99 -46.881,-17.813 -79.265,-45.474 -99.653,-77.406 -26.329,-41.228 -32.799,-83.411 -55.925,-120.707 -87.342,15.565 -107.919,52.245 -222.256,22.926 -66.44,-17.034 -132.327,-58.589 -141.597,-125.43z"/>
   <path class="fil1" d="M2966.562 156.169l304.561 0.489 0.239 76.1 -306.257 -0.628 1.457 -75.961zm-147.074 658.164c17.398,-25.174 53.915,-174.145 70.673,-220.661 23.264,-64.568 55.548,-162.563 95.821,-203.841l263.095 -4.095c199.545,337.913 175.715,576.085 175.715,934.31 0,91.978 0,183.943 0,275.908 0,73.462 23.352,202.572 -39.909,235.61 -59.995,31.329 -456.434,4.836 -542.407,1.557 -34.093,44.055 -67.206,57.559 -93.058,83.725 -17.285,17.486 -3.982,-1.131 -15.388,19.169 103.17,68.512 135.341,58.073 284.726,58.073 231.075,0 464.285,51.215 542.759,-146.621 29.269,-73.776 16.343,-558.737 16.343,-673.037 0,-102.593 7.738,-240.798 -6.595,-337.675 -27.008,-182.41 -100.822,-372.646 -179.132,-513.037 14.408,-38.59 29.131,-39.155 32.322,-91.777 16.82,-277.465 -147.602,-228.323 -421.161,-228.951 -160.828,-0.365 -191.819,76.149 -191.379,198.213 0.239,66.703 2.475,54.681 22.486,108.019 10.414,27.749 -42.497,102.693 -68.751,175.313 -18.893,52.269 -52.37,141.76 -62.633,198.439 -6.457,35.65 -6.683,13.629 11.732,36.09 42.296,51.566 -12.511,46.215 104.741,95.269z"/>
   <path class="fil1" d="M2338.333 835.851c5.552,-129.927 96.864,-182.486 90.281,-205.637 -48.991,-25.739 -72.959,11.996 -109.576,66.753 -29.583,44.243 -39.495,75.962 -66.691,125.33l-28.126 -25.94c-101.914,-104.339 -180.363,-0.088 -261.06,-111.487 -6.117,144.813 115.506,157.023 242.418,178.265 -25.475,13.24 -65.912,12.022 -93.548,25.287 -74.416,35.713 -59.957,93.724 -186.844,153.518 146.621,78.964 276.536,-8.58 324.296,-118.332 -1.043,73.675 -22.8,115.481 7.047,193.1 18.139,47.195 59.028,98.912 103.271,113.22 34.922,-168.341 19.659,-179.86 -28.44,-322.236 34.118,37.56 87.556,93.611 135.693,120.983 55.849,31.744 147.651,48.689 199.243,0.138 -17.348,-12.612 -36.807,-18.428 -54.079,-30.261 -34.972,-23.956 -58.526,-58.702 -89.528,-78.977l-45.876 -25.676c-0.867,-2.6 -3.53,-2.211 -5.163,-3.467 93.309,0.641 158.028,-15.966 185.99,-112.039 -84.44,26.028 -95.03,4.234 -175.4,2.751 -78.085,-1.432 -98.171,30.01 -143.908,54.707z"/>
  </g>
 </g>
</svg>
