<?xml version="1.0" encoding="UTF-8"?>
<!DOCTYPE svg PUBLIC "-//W3C//DTD SVG 1.1//EN" "http://www.w3.org/Graphics/SVG/1.1/DTD/svg11.dtd">
<!-- Creator: CorelDRAW -->
<svg xmlns="http://www.w3.org/2000/svg" xml:space="preserve" width="127px" height="125px" version="1.1" style="shape-rendering:geometricPrecision; text-rendering:geometricPrecision; image-rendering:optimizeQuality; fill-rule:evenodd; clip-rule:evenodd"
viewBox="0 0 678.842 667.699"
 xmlns:xlink="http://www.w3.org/1999/xlink"
 xmlns:xodm="http://www.corel.com/coreldraw/odm/2003">
 <defs>
  <style type="text/css">
   <![CDATA[
    .fil0 {fill:#2B2B2A}
    .fil1 {fill:black}
   ]]>
  </style>
 </defs>
 <g id="Layer_x0020_1">
  <metadata id="CorelCorpID_0Corel-Layer"/>
  <g id="_105553572205984">
   <path class="fil0" d="M0 373.34l137.185 0 0 244.093 -137.185 0 0 -244.093zm164.81 223.595l0 -204.038 91.769 0c38.897,6.963 77.793,28.067 116.688,52.543l71.273 0c32.266,1.933 49.171,34.642 17.789,56.134 -24.971,18.343 -57.956,17.293 -91.768,14.254 -23.316,-1.16 -24.31,30.166 0,30.277 8.453,0.663 17.624,-1.325 25.635,-1.325 42.21,-0.056 76.907,-8.122 98.179,-41.438l10.663 -24.917 106.025 -52.543c53.038,-17.458 90.72,38.012 51.657,76.631 -76.796,55.858 -155.527,101.825 -236.082,138.954 -58.509,35.58 -117.018,34.364 -175.473,0l-86.355 -44.532 0 0z"/>
   <path class="fil1" d="M515.634 87.907c18.673,6.023 38.305,7.644 58.86,4.902 5.042,-0.665 9.976,-1.454 14.769,-2.202 22.933,-3.488 42.103,-5.483 48.919,14.621 12.036,35.514 -15.194,112.442 -29.537,143.553 -29.535,64.091 -88.397,135.786 -156.487,114.519 -10.614,-3.323 -20.164,-8.724 -28.684,-16.035 22.365,-14.579 40.045,-36.968 53.713,-63.303l-0.037 0.085c16.934,1.079 34.542,11.546 50.66,22.594 1.171,-24.879 -19.383,-41.411 -37.702,-51.713 14.698,-38.587 22.473,-81.911 24.887,-120.582 0.71,-11.962 1.101,-28.287 0.639,-46.439l0 0zm-301.402 -60.852c5.539,-6.146 13.917,-7.768 23.431,-7.06 17.857,1.287 36.316,7.725 53.641,13.208 37.668,11.879 74.516,8.017 110.407,-11.381 4.829,-2.617 9.55,-5.317 14.129,-7.892 21.869,-12.377 40.472,-21.806 52.932,-4.362 22.046,30.821 16.616,118.132 11.113,154.726 -11.361,75.391 -49.809,169.763 -123.826,174.873 -39.265,2.7 -72.742,-23.137 -101.569,-71.943 -18.354,-33.231 -31.596,-67.374 -39.69,-102.472 -5.821,-25.587 -18.567,-117.634 -0.568,-137.697l0 0zm36.673 115.433c-6.782,-2.077 -10.685,-4.654 -12,-7.684 -5.219,-12.129 37.845,-42.743 68.232,-14.622 43.205,39.335 -40.897,27.622 -56.232,22.306l0 0zm69.9 118.34c-11.466,-9.597 -17.608,-21.435 -20.945,-37.468 37.879,22.431 73.344,20.81 106.36,-10.052 -1.313,13.666 -5.112,25.919 -11.643,36.677 -19.278,31.777 -47.465,32.816 -73.772,10.843l0 0zm122.265 -135.951c6.354,-3.491 9.798,-6.854 10.615,-10.137 3.267,-13.042 -43.844,-34.018 -69.368,0.125 -36.389,47.893 44.517,18.485 58.753,10.012l0 0zm84.314 49.885c17.892,-16.781 42.388,-13.375 59.429,3.032 4.331,4.195 16.224,16.408 9.372,23.095 -1.881,1.827 -5.006,2.865 -9.336,3.115 -10.58,1.412 -25.988,-1.163 -38.27,-7.102 -9.657,-4.569 -16.97,-10.675 -21.195,-22.14l0 0z"/>
  </g>
 </g>
</svg>
