<?xml version="1.0" encoding="UTF-8"?>
<!DOCTYPE svg PUBLIC "-//W3C//DTD SVG 1.1//EN" "http://www.w3.org/Graphics/SVG/1.1/DTD/svg11.dtd">
<!-- Creator: CorelDRAW -->
<svg xmlns="http://www.w3.org/2000/svg" xml:space="preserve" width="127px" height="125px" version="1.1" style="shape-rendering:geometricPrecision; text-rendering:geometricPrecision; image-rendering:optimizeQuality; fill-rule:evenodd; clip-rule:evenodd"
viewBox="0 0 21.971 21.611"
 xmlns:xlink="http://www.w3.org/1999/xlink"
 xmlns:xodm="http://www.corel.com/coreldraw/odm/2003">
 <defs>
  <style type="text/css">
   <![CDATA[
    .fil0 {fill:#2B2B2A}
    .fil1 {fill:black}
   ]]>
  </style>
 </defs>
 <g id="Layer_x0020_1">
  <metadata id="CorelCorpID_0Corel-Layer"/>
  <g id="_105553572545984">
   <path class="fil0" d="M0 12.083l4.44 0 0 7.901 -4.44 0 0 -7.901zm5.334 7.237l0 -6.604 2.97 0c1.259,0.226 2.518,0.909 3.777,1.701l2.307 0c1.044,0.063 1.591,1.121 0.576,1.817 -0.809,0.594 -1.876,0.56 -2.97,0.461 -0.755,-0.037 -0.787,0.977 0,0.98 0.273,0.022 0.57,-0.043 0.829,-0.043 1.366,-0.002 2.489,-0.263 3.178,-1.341l0.345 -0.806 3.432 -1.701c1.716,-0.565 2.936,1.23 1.672,2.48 -2.486,1.808 -5.034,3.296 -7.641,4.498 -1.894,1.151 -3.788,1.112 -5.68,0l-2.795 -1.442 0 0z"/>
   <path class="fil1" d="M14.113 5.27c0,0.378 0.466,0.435 0.895,0.511 0.629,0.111 1.02,-0.091 1.198,0.149 0.098,0.132 0.066,0.623 0.041,0.858 -0.041,0.38 -0.11,0.812 -0.26,1.146 -0.095,0.213 -0.146,0.193 -0.146,0.439 0,0.218 0.522,0.731 -0.761,1.582 -0.118,0.078 -0.337,0.183 -0.41,0.292 0.146,0.2 1.17,0.498 1.581,0.498 1.001,0 1.501,-0.177 2.189,-0.856 1.1,-1.088 0.592,-2.841 0.592,-4.092 0,-0.592 -0.035,-0.954 0.247,-1.422 0.213,-0.354 0.305,-0.467 0.486,-0.861 0.312,-0.679 0.526,-1.448 0.526,-2.343 0,-0.291 -0.151,-0.439 -0.41,-0.439 -0.192,0 -0.263,0.172 -0.332,0.312 -0.558,1.135 -0.678,2.022 -1.764,2.745 -0.524,0.349 -1.141,0.573 -1.854,0.722l-1.107 0.182c-0.169,0.021 -0.398,0.026 -0.524,0.119 -0.095,0.07 -0.187,0.307 -0.187,0.458z"/>
   <path class="fil1" d="M8.434 1.464c0,0.413 0.272,0.724 0.497,1.025 0.341,0.455 0.664,0.733 1.061,1.105 0.075,0.07 0.115,0.084 0.191,0.16 0.086,0.086 0.113,0.102 0.204,0.178 0.466,0.389 0.582,0.837 0.465,1.414 -0.057,0.276 -0.172,0.636 0.298,0.093 0.264,-0.304 0.759,-1.039 1.226,-0.364 0.403,0.582 -0.38,1.49 -0.696,1.889 -0.107,0.135 -0.203,0.256 -0.326,0.377 -0.201,0.2 -0.5,0.398 -0.518,0.536 -0.013,0.092 -0.002,0.278 -0.002,0.379 0.316,-0.211 0.435,-0.276 0.829,0.021l0.776 0.52c0.246,0.07 0.017,-0.216 -0.012,-0.348 -0.172,-0.784 0.376,-1.393 1.247,-1.393 0.147,0 0.131,0.026 0.264,0.029 0.115,-0.241 0,-0.651 0,-0.966 0,-0.357 0.049,-0.72 0.085,-1.057 0.051,-0.483 0.111,-0.519 0.619,-0.523 0.403,-0.003 1.687,-0.223 1.931,-0.352 -0.029,-0.107 -0.06,-0.112 -0.166,-0.156l-0.754 -0.271c-0.355,-0.101 -0.725,-0.17 -1.113,-0.234 -1.48,-0.247 -2.935,-0.431 -4.09,-1.355l-1.028 -0.993c-0.507,-0.476 -0.988,-0.183 -0.988,0.286z"/>
   <path class="fil1" d="M6.531 4.831c0,0.792 0.259,1.542 0.727,2.141 0.085,0.109 0.172,0.194 0.256,0.301 0.159,0.205 0.43,0.332 0.432,0.664l-0.04 1.05c-0.009,0.273 -0.036,0.311 0.11,0.449 0.051,0.048 0.085,0.079 0.132,0.131 0.029,0.032 0.039,0.047 0.067,0.079l0.357 0.346c0.064,0.061 0.081,0.064 0.145,0.118l0.8 0.606c0.078,0.052 0.658,0.404 0.709,0.403 0.138,-0.001 0.059,-0.117 0.103,-0.441 0.012,-0.092 0.005,-0.164 0.007,-0.256 0.003,-0.141 0.023,-0.133 0.03,-0.263l0.098 -2.127c0.049,-0.333 0.222,-0.181 0.529,-0.583 0.121,-0.158 0.546,-0.556 0.795,-0.874 0.09,-0.113 0.149,-0.204 0.23,-0.327 0.181,-0.274 0.478,-0.808 0.187,-1.119 -0.233,-0.25 -0.456,-0.09 -0.632,0.089l-0.511 0.602c-0.058,0.067 -0.067,0.093 -0.132,0.16 -0.054,0.057 -0.091,0.091 -0.147,0.146 -0.466,0.466 -0.853,0.717 -1.589,0.638 -0.581,-0.064 -1.078,-0.447 -1.381,-0.902 -0.349,-0.525 -0.505,-0.925 -0.726,-1.266 -0.128,-0.197 -0.355,-0.107 -0.439,-0.028 -0.057,0.054 -0.117,0.155 -0.117,0.263z"/>
   <path class="fil1" d="M11.039 8.461c0,0.311 0.023,0.362 0.21,0.639 0.107,0.157 0.222,0.226 0.338,0.365 0.327,0.393 0.475,0.275 0.575,0.479 0.14,0.284 0.045,0.695 0.047,1.036 0.001,0.169 0.027,0.2 0.032,0.349 0.015,0.527 -0.094,0.477 0.267,0.524l1.108 0.092c0.238,0 0.385,-0.029 0.644,-0.029 0.077,-0.332 0.029,-0.818 0.029,-1.2 0,-0.706 0.024,-0.507 0.467,-0.763 0.251,-0.144 0.51,-0.314 0.712,-0.518 0.1,-0.102 0.229,-0.207 0.281,-0.334 0.083,-0.199 0.113,-0.435 -0.142,-0.435 -0.145,0 -0.325,0.097 -0.439,0.147 -2.729,1.199 -3.256,-0.557 -3.924,-0.557 -0.136,0 -0.205,0.069 -0.205,0.205z"/>
   <path class="fil1" d="M11.976 1.698c0,1.278 1.771,1.735 2.293,0.39 0.183,-0.472 0.127,-0.951 -0.231,-1.31 -0.397,-0.397 -1.027,-0.448 -1.494,-0.093 -0.313,0.239 -0.568,0.586 -0.568,1.013z"/>
   <path class="fil1" d="M15.724 2.547c0,0.579 0.492,1.083 1.024,1.083 0.345,0 0.579,-0.035 0.858,-0.313 0.7,-0.701 0.161,-1.882 -0.711,-1.882 -0.338,0 -0.656,0.1 -0.883,0.347 -0.152,0.164 -0.288,0.452 -0.288,0.765z"/>
   <path class="fil1" d="M14.904 3.396c0.227,0.053 0.455,0.115 0.673,0.176 0.115,0.032 0.22,0.059 0.341,0.098 0.108,0.035 0.234,0.099 0.333,0.107 -0.007,-0.295 -0.092,-0.157 -0.361,-0.488 -0.299,-0.369 -0.34,-0.885 -0.138,-1.299 0.072,-0.146 0.102,-0.177 0.209,-0.289 0.596,-0.622 0.812,-0.033 1.218,-0.773 0.049,-0.091 0.122,-0.24 0.139,-0.358 0.019,-0.132 -0.086,-0.277 -0.218,-0.277 -0.305,0 -0.594,0.966 -1.376,0.966 -0.919,0 -1.161,-1.259 -1.347,-1.259 -0.483,0 -0.118,1.069 0.27,1.486 0.095,0.102 0.2,0.176 0.254,0.303 0.075,0.177 0.012,0.323 0.003,0.494 -0.019,0.349 0,0.758 0,1.113z"/>
   <path class="fil1" d="M8.58 5.504c0,0.304 0.031,0.517 0.27,0.755 0.62,0.62 1.545,0.103 1.545,-0.813 0,-0.41 -0.506,-0.841 -0.932,-0.817 -0.481,0.027 -0.883,0.365 -0.883,0.875z"/>
   <path class="fil1" d="M12.679 8.081c0,1.168 1.698,1.205 1.698,0.029 0,-0.891 -0.997,-1.004 -1.443,-0.594 -0.109,0.101 -0.255,0.367 -0.255,0.565z"/>
   <path class="fil1" d="M9.985 0.908c0,0.219 -0.006,0.258 0.15,0.465 0.423,0.56 0.582,0.222 0.582,0.823 0.117,0.061 0.189,0.121 0.305,0.192 0.123,0.076 0.216,0.127 0.339,0.189l0.558 0.239c0.179,0.062 0.145,-0.023 0.145,-0.327 0,-0.053 -0.234,-0.364 -0.234,-0.732 0,-0.178 0.029,-0.214 0.029,-0.381 -1.006,0.235 -1.385,-0.586 -1.786,-0.586 -0.035,0 -0.088,0.061 -0.088,0.118z"/>
   <path class="fil1" d="M11.01 0.703c0,0.65 1.083,0.852 1.083,-0.059 0,-0.519 -0.769,-0.659 -1.016,-0.167 -0.029,0.059 -0.067,0.15 -0.067,0.226z"/>
   <path class="fil1" d="M15.255 0.586c0,0.247 0.194,0.527 0.439,0.527l0.147 0c0.497,0 0.637,-1.025 -0.088,-1.025 -0.296,0 -0.498,0.268 -0.498,0.498z"/>
  </g>
 </g>
</svg>
