<?xml version="1.0" encoding="UTF-8"?>
<!DOCTYPE svg PUBLIC "-//W3C//DTD SVG 1.1//EN" "http://www.w3.org/Graphics/SVG/1.1/DTD/svg11.dtd">
<!-- Creator: CorelDRAW -->
<svg xmlns="http://www.w3.org/2000/svg" xml:space="preserve" width="128px" height="126px" version="1.1" style="shape-rendering:geometricPrecision; text-rendering:geometricPrecision; image-rendering:optimizeQuality; fill-rule:evenodd; clip-rule:evenodd"
viewBox="0 0 14.955 14.723"
 xmlns:xlink="http://www.w3.org/1999/xlink"
 xmlns:xodm="http://www.corel.com/coreldraw/odm/2003">
 <defs>
  <style type="text/css">
   <![CDATA[
    .str0 {stroke:#2B2B2A;stroke-width:0.089;stroke-miterlimit:22.9256}
    .fil0 {fill:#2B2B2A}
   ]]>
  </style>
 </defs>
 <g id="Layer_x0020_1">
  <metadata id="CorelCorpID_0Corel-Layer"/>
  <g id="_105553571926688">
   <path class="fil0" d="M0 8.252l3.016 0 0 5.366 -3.016 0 0 -5.366zm3.623 4.916l0 -4.486 2.018 0c0.855,0.153 1.71,0.617 2.565,1.155l1.567 0c0.709,0.043 1.081,0.762 0.391,1.234 -0.549,0.403 -1.274,0.38 -2.017,0.313 -0.513,-0.025 -0.535,0.664 0,0.666 0.185,0.015 0.387,-0.029 0.563,-0.029 0.928,-0.001 1.691,-0.179 2.159,-0.911l0.234 -0.548 2.331 -1.155c1.166,-0.384 1.994,0.836 1.135,1.685 -1.688,1.228 -3.419,2.238 -5.19,3.055 -1.286,0.782 -2.572,0.755 -3.857,0l-1.899 -0.979 0 0z"/>
   <path class="fil0 str0" d="M12.177 3.102l2.671 1.204c0.08,0.043 0.089,0.153 -0.006,0.19l-4.59 1.855c-0.154,0.062 -0.326,0.062 -0.48,0l-4.273 -1.726c-0.325,-0.132 -0.695,0.028 -0.82,0.357 -0.124,0.322 0.049,0.684 0.37,0.813l4.728 1.911 0.481 -0.005 3.13 -1.265 1.522 -0.614c0,0.19 -0.036,0.265 -0.246,0.35l-4.33 1.749 -0.49 0.046 -4.902 -1.964c-0.681,-0.275 -0.762,-1.286 0.033,-1.606l2.129 -0.96 0 0.396c0,0.447 0.453,0.73 0.818,0.879 0.524,0.214 1.156,0.293 1.718,0.293 0.563,0 1.195,-0.079 1.719,-0.293 0.365,-0.149 0.818,-0.432 0.818,-0.879l0 -0.731zm-5.898 -1.551l3.225 -1.473c0.098,-0.045 0.21,-0.045 0.307,0l3.226 1.473c0.081,0.037 0.081,0.152 0,0.189l-3.226 1.473c-0.097,0.044 -0.209,0.044 -0.307,0l-3.225 -1.473c-0.082,-0.037 -0.082,-0.152 0,-0.189zm3.379 1.878c0.107,0 0.211,-0.023 0.309,-0.067l1.981 -0.905 0 1.376c0,0.521 -1.033,0.942 -2.308,0.942 -1.274,0 -2.307,-0.421 -2.307,-0.942l0 -1.392 2.015 0.921c0.098,0.044 0.202,0.067 0.31,0.067zm-4.357 1.512l4.555 1.843c0.104,0.03 0.207,0.03 0.312,0l4.398 -1.773c0.037,-0.015 0.079,0.003 0.094,0.04 0.015,0.037 -0.003,0.079 -0.04,0.094l-4.401 1.775c-0.002,0.001 -0.005,0.002 -0.007,0.002 -0.066,0.02 -0.133,0.03 -0.2,0.03 -0.067,0 -0.134,-0.01 -0.201,-0.03 -0.002,0 -0.004,-0.001 -0.006,-0.002l-4.558 -1.845c-0.037,-0.015 -0.055,-0.057 -0.04,-0.094 0.015,-0.037 0.057,-0.055 0.094,-0.04zm4.555 2.349c0.104,0.03 0.207,0.03 0.312,0l4.398 -1.773c0.037,-0.015 0.079,0.003 0.094,0.04 0.015,0.037 -0.003,0.079 -0.04,0.094l-4.401 1.775c-0.002,0.001 -0.005,0.002 -0.007,0.002 -0.067,0.02 -0.134,0.03 -0.201,0.03 -0.066,0 -0.133,-0.01 -0.2,-0.03 -0.002,0 -0.004,-0.001 -0.006,-0.002l-4.558 -1.845c-0.037,-0.015 -0.055,-0.057 -0.04,-0.094 0.015,-0.037 0.057,-0.055 0.094,-0.04l4.555 1.843z"/>
  </g>
 </g>
</svg>
