<?xml version="1.0" encoding="UTF-8"?>
<!DOCTYPE svg PUBLIC "-//W3C//DTD SVG 1.1//EN" "http://www.w3.org/Graphics/SVG/1.1/DTD/svg11.dtd">
<!-- Creator: CorelDRAW -->
<svg xmlns="http://www.w3.org/2000/svg" xml:space="preserve" width="127px" height="123px" version="1.1" style="shape-rendering:geometricPrecision; text-rendering:geometricPrecision; image-rendering:optimizeQuality; fill-rule:evenodd; clip-rule:evenodd"
viewBox="0 0 44.041 42.486"
 xmlns:xlink="http://www.w3.org/1999/xlink"
 xmlns:xodm="http://www.corel.com/coreldraw/odm/2003">
 <defs>
  <style type="text/css">
   <![CDATA[
    .fil1 {fill:black}
    .fil0 {fill:#2B2B2A}
   ]]>
  </style>
 </defs>
 <g id="Layer_x0020_1">
  <metadata id="CorelCorpID_0Corel-Layer"/>
  <path class="fil0" d="M0 23.388l8.902 0 0 15.835 -8.902 0 0 -15.835zm10.692 14.506l0 -13.236 5.956 0c2.52,0.449 5.044,1.822 7.569,3.407l4.622 0c2.094,0.127 3.191,2.249 1.156,3.641 -1.621,1.191 -3.759,1.124 -5.956,0.927 -1.511,-0.075 -1.574,1.956 0,1.964 0.548,0.043 1.144,-0.087 1.664,-0.087 2.738,-0.004 4.99,-0.524 6.37,-2.686l0.69 -1.617 6.879 -3.412c3.443,-1.132 5.889,2.469 3.353,4.974 -4.982,3.625 -10.089,6.606 -15.315,9.016 -3.799,2.308 -7.593,2.229 -11.387,0l-5.601 -2.891 0 0 0 0z"/>
  <g id="_105553536180224">
   <path class="fil1" d="M29.717 18.857c0,-1.538 -0.216,-1.319 1.222,-1.319 0,-1.431 -0.211,-1.222 1.27,-1.222 0.132,0 0.135,0.024 0.244,0.049 0.088,0.376 0.049,0.723 0.049,1.173 1.461,0 1.221,-0.225 1.221,1.27 0,0.132 -0.023,0.134 -0.049,0.244 -0.375,0.087 -0.722,0.049 -1.172,0.049 0,1.437 0.219,1.221 -1.319,1.221 -0.359,0 -0.244,-0.696 -0.244,-1.221 -0.526,0 -1.222,0.114 -1.222,-0.244zm-9.379 -1.271l0 3.567c0,0.599 0.329,0.928 0.928,0.928l14.167 0c0.599,0 0.928,-0.329 0.928,-0.928 0,-1.836 0.17,-4.82 -0.398,-6.344 -0.709,-1.905 -2.019,-3.229 -3.914,-3.999 -0.314,-0.128 -0.894,-0.307 -1.306,-0.307 -0.035,0.131 -1.832,2.198 -2.063,2.431 -0.133,0.133 -0.202,0.267 -0.33,0.354l-1.061 -1.187c-0.167,-0.199 -1.291,-1.442 -1.333,-1.598 -0.392,0 -0.923,0.153 -1.271,0.292 -1.423,0.572 -2.699,1.56 -3.435,2.916 -0.216,0.395 -0.353,0.666 -0.514,1.098 -0.295,0.793 -0.398,1.702 -0.398,2.777z"/>
   <path class="fil1" d="M24.149 4.055c0,1.81 -0.197,3.203 1.184,4.58 0.367,0.365 0.629,0.602 1.111,0.843 1.18,0.59 2.593,0.608 3.779,0.016 0.765,-0.381 1.582,-1.173 1.937,-1.971 0.525,-1.18 0.391,-2.18 0.391,-3.468 0,-1.299 -0.828,-2.623 -1.837,-3.293 -0.674,-0.447 -1.535,-0.762 -2.364,-0.762 -0.185,0 -0.218,0.036 -0.44,0.049 -0.4,0.023 -0.896,0.159 -1.238,0.325 -0.52,0.252 -0.822,0.44 -1.217,0.835 -0.39,0.391 -0.619,0.64 -0.884,1.168 -0.21,0.42 -0.422,1.075 -0.422,1.678z"/>
  </g>
 </g>
</svg>
