<?xml version="1.0" encoding="UTF-8"?>
<!DOCTYPE svg PUBLIC "-//W3C//DTD SVG 1.1//EN" "http://www.w3.org/Graphics/SVG/1.1/DTD/svg11.dtd">
<!-- Creator: CorelDRAW -->
<svg xmlns="http://www.w3.org/2000/svg" xml:space="preserve" width="127px" height="120px" version="1.1" style="shape-rendering:geometricPrecision; text-rendering:geometricPrecision; image-rendering:optimizeQuality; fill-rule:evenodd; clip-rule:evenodd"
viewBox="0 0 14.74 13.915"
 xmlns:xlink="http://www.w3.org/1999/xlink"
 xmlns:xodm="http://www.corel.com/coreldraw/odm/2003">
 <defs>
  <style type="text/css">
   <![CDATA[
    .fil1 {fill:black}
    .fil0 {fill:#2B2B2A}
   ]]>
  </style>
 </defs>
 <g id="Layer_x0020_1">
  <metadata id="CorelCorpID_0Corel-Layer"/>
  <path class="fil0" d="M0 7.523l2.979 0 0 5.3 -2.979 0 0 -5.3zm3.579 4.855l0 -4.43 1.993 0c0.843,0.151 1.688,0.61 2.533,1.141l1.547 0c0.701,0.042 1.068,0.752 0.387,1.218 -0.543,0.399 -1.258,0.376 -1.993,0.31 -0.506,-0.025 -0.527,0.655 0,0.658 0.183,0.014 0.382,-0.029 0.557,-0.029 0.916,-0.002 1.67,-0.176 2.132,-0.899l0.231 -0.542 2.302 -1.141c1.152,-0.379 1.971,0.826 1.122,1.664 -1.667,1.213 -3.377,2.211 -5.126,3.018 -1.271,0.772 -2.541,0.746 -3.811,0l-1.874 -0.968 0 0 0 0z"/>
  <path class="fil1" d="M9.324 3.49c-0.094,-0.226 -0.154,-0.299 -0.143,-0.58 0.025,-0.624 -0.165,-1.211 -0.568,-1.621 -0.423,-0.43 -1.272,-0.779 -2.136,-0.774 -0.037,0.951 0.443,2.144 1.359,2.528 0.428,0.179 0.652,0.157 1.134,0.178 0.182,0.258 0.469,1.414 0.401,1.808 -0.168,0.089 -0.297,0.127 -0.455,0.224 -0.307,0.187 -0.098,0.147 -0.49,0.088 -0.437,-0.066 -0.863,0.029 -1.14,0.238 -0.41,0.311 -0.338,0.498 -0.502,0.545 -0.338,0.099 -0.894,0.213 -0.998,0.743l6.705 0.006c-0.023,-0.35 -0.201,-0.689 -0.381,-0.84 -0.26,-0.216 -0.538,-0.277 -0.975,-0.27l-0.259 -0.312c-0.423,-0.453 -0.767,-0.465 -1.277,-0.481 -0.001,-0.665 -0.255,-0.935 0.052,-1.798 0.067,-0.19 0.151,-0.311 0.23,-0.468 0.472,-0.012 0.739,0.005 1.143,-0.16 0.319,-0.131 0.573,-0.347 0.75,-0.555 0.352,-0.414 0.661,-1.252 0.642,-1.989 -1.02,0.001 -1.879,0.418 -2.305,0.978 -0.242,0.318 -0.39,0.745 -0.4,1.257 -0.012,0.563 0.046,0.172 -0.17,0.64 -0.048,0.104 -0.084,0.191 -0.119,0.298 -0.034,0.101 -0.053,0.232 -0.098,0.317z"/>
 </g>
</svg>
