<?xml version="1.0" encoding="UTF-8"?>
<!DOCTYPE svg PUBLIC "-//W3C//DTD SVG 1.1//EN" "http://www.w3.org/Graphics/SVG/1.1/DTD/svg11.dtd">
<!-- Creator: CorelDRAW -->
<svg xmlns="http://www.w3.org/2000/svg" xml:space="preserve" width="127px" height="117px" version="1.1" style="shape-rendering:geometricPrecision; text-rendering:geometricPrecision; image-rendering:optimizeQuality; fill-rule:evenodd; clip-rule:evenodd"
viewBox="0 0 36.149 33.425"
 xmlns:xlink="http://www.w3.org/1999/xlink"
 xmlns:xodm="http://www.corel.com/coreldraw/odm/2003">
 <defs>
  <style type="text/css">
   <![CDATA[
    .fil1 {fill:black}
    .fil0 {fill:#2B2B2A}
   ]]>
  </style>
 </defs>
 <g id="Layer_x0020_1">
  <metadata id="CorelCorpID_0Corel-Layer"/>
  <path class="fil0" d="M0 17.749l7.307 0 0 12.997 -7.307 0 0 -12.997zm8.776 11.906l0 -10.864 4.889 0c2.068,0.369 4.14,1.495 6.212,2.797l3.794 0c1.719,0.104 2.619,1.845 0.949,2.988 -1.331,0.978 -3.085,0.923 -4.889,0.761 -1.24,-0.062 -1.291,1.605 0,1.612 0.45,0.036 0.939,-0.071 1.366,-0.071 2.247,-0.004 4.096,-0.431 5.229,-2.205l0.566 -1.327 5.646 -2.8c2.826,-0.93 4.834,2.026 2.752,4.082 -4.089,2.975 -8.281,5.422 -12.571,7.4 -3.117,1.894 -6.231,1.83 -9.346,0l-4.597 -2.373 0 0 0 0z"/>
  <g id="_105553551940736">
   <path class="fil1" d="M15.938 10.27c1.933,0 2.165,0.219 2.464,-0.477l1.079 -2.51c0.293,-0.588 0.475,-0.915 0.654,-0.923 0.188,-0.008 0.373,0.336 0.68,1.1l1.461 3.684 1.485 -2.41c0.117,-0.19 0.234,-0.355 0.282,-0.294l0.73 0.925 1.709 -5.876 1.69 6.767 3.484 0.015c0.143,-0.297 0.365,-0.558 0.544,-0.894 0.149,-0.283 0.335,-0.66 0.468,-0.991 1.012,-2.513 0.629,-4.902 -0.998,-6.808 -1.388,-1.626 -4.339,-2.163 -6.36,-0.721 -0.896,0.64 -1.357,1.403 -1.561,1.402 -0.382,-0.003 -1.203,-1.928 -3.669,-2.224 -1.851,-0.222 -3.431,0.643 -4.203,1.59 -0.843,1.033 -1.598,2.482 -1.518,4.342 0.09,2.104 0.951,3.028 1.579,4.303z"/>
   <path class="fil1" d="M23.75 17.507c0.334,-0.221 0.7,-0.566 0.982,-0.853l2.73 -2.415c0.324,-0.253 0.576,-0.536 0.911,-0.806 0.205,-0.166 0.219,-0.211 0.434,-0.418 0.168,-0.162 0.293,-0.233 0.475,-0.388l1.698 -1.614c-0.694,-0.044 -3.221,0.151 -3.597,-0.167 -0.208,-0.175 -0.168,-0.208 -0.22,-0.555l-0.694 -4.306 -1.195 5.181 -1.232 -1.548 -1.902 2.949 -2.01 -4.847 -1.579 3.223 -1.923 0.029c0.141,0.244 0.629,0.7 0.833,0.871 0.181,0.152 0.3,0.221 0.466,0.394 0.713,0.742 1.414,1.294 2.216,2.066 0.17,0.164 0.297,0.237 0.475,0.389 0.166,0.142 0.264,0.273 0.426,0.424l2.706 2.391z"/>
  </g>
 </g>
</svg>
