<?xml version="1.0" encoding="UTF-8"?>
<!DOCTYPE svg PUBLIC "-//W3C//DTD SVG 1.1//EN" "http://www.w3.org/Graphics/SVG/1.1/DTD/svg11.dtd">
<!-- Creator: CorelDRAW -->
<svg xmlns="http://www.w3.org/2000/svg" xml:space="preserve" width="127px" height="117px" version="1.1" style="shape-rendering:geometricPrecision; text-rendering:geometricPrecision; image-rendering:optimizeQuality; fill-rule:evenodd; clip-rule:evenodd"
viewBox="0 0 21.737 20.099"
 xmlns:xlink="http://www.w3.org/1999/xlink"
 xmlns:xodm="http://www.corel.com/coreldraw/odm/2003">
 <defs>
  <style type="text/css">
   <![CDATA[
    .fil1 {fill:black}
    .fil0 {fill:#2B2B2A}
   ]]>
  </style>
 </defs>
 <g id="Layer_x0020_1">
  <metadata id="CorelCorpID_0Corel-Layer"/>
  <path class="fil0" d="M0 10.672l4.394 0 0 7.816 -4.394 0 0 -7.816zm5.277 7.16l0 -6.533 2.94 0c1.244,0.222 2.489,0.899 3.735,1.682l2.282 0c1.033,0.062 1.575,1.11 0.57,1.797 -0.8,0.588 -1.855,0.555 -2.939,0.457 -0.746,-0.037 -0.777,0.966 0,0.97 0.27,0.021 0.564,-0.043 0.821,-0.043 1.351,-0.002 2.463,-0.259 3.144,-1.326l0.341 -0.798 3.395 -1.684c1.699,-0.558 2.906,1.219 1.654,2.455 -2.458,1.789 -4.979,3.261 -7.559,4.45 -1.874,1.139 -3.747,1.1 -5.619,0l-2.765 -1.427 0 0 0 0z"/>
  <g id="_105553536102784">
   <path class="fil1" d="M9.583 6.175c1.163,0 1.303,0.132 1.483,-0.286l0.648 -1.509c0.176,-0.354 0.286,-0.551 0.393,-0.556 0.113,-0.004 0.225,0.203 0.41,0.662l0.878 2.215 0.892 -1.449c0.071,-0.115 0.142,-0.214 0.171,-0.177l0.438 0.556 1.028 -3.533 1.016 4.069 2.095 0.009c0.086,-0.179 0.22,-0.335 0.327,-0.538 0.09,-0.17 0.202,-0.397 0.282,-0.595 0.608,-1.511 0.378,-2.948 -0.6,-4.094 -0.835,-0.978 -2.61,-1.301 -3.825,-0.434 -0.539,0.385 -0.816,0.844 -0.938,0.843 -0.23,-0.002 -0.724,-1.159 -2.207,-1.337 -1.113,-0.133 -2.063,0.387 -2.527,0.956 -0.507,0.621 -0.961,1.492 -0.913,2.611 0.054,1.265 0.572,1.821 0.949,2.587z"/>
   <path class="fil1" d="M14.281 10.527c0.201,-0.133 0.421,-0.34 0.591,-0.513l1.641 -1.452c0.195,-0.152 0.346,-0.322 0.548,-0.485 0.123,-0.099 0.132,-0.126 0.261,-0.251 0.101,-0.097 0.176,-0.14 0.286,-0.234l1.021 -0.97c-0.418,-0.026 -1.937,0.091 -2.163,-0.1 -0.125,-0.106 -0.101,-0.125 -0.133,-0.334l-0.417 -2.589 -0.718 3.115 -0.742 -0.93 -1.143 1.773 -1.209 -2.915 -0.949 1.938 -1.157 0.017c0.085,0.147 0.379,0.422 0.501,0.525 0.109,0.091 0.181,0.132 0.281,0.237 0.429,0.445 0.85,0.777 1.332,1.241 0.102,0.099 0.179,0.143 0.286,0.234 0.1,0.086 0.158,0.165 0.256,0.256l1.627 1.437z"/>
  </g>
 </g>
</svg>
