<?xml version="1.0" encoding="UTF-8"?>
<!DOCTYPE svg PUBLIC "-//W3C//DTD SVG 1.1//EN" "http://www.w3.org/Graphics/SVG/1.1/DTD/svg11.dtd">
<!-- Creator: CorelDRAW -->
<svg xmlns="http://www.w3.org/2000/svg" xml:space="preserve" width="127px" height="125px" version="1.1" style="shape-rendering:geometricPrecision; text-rendering:geometricPrecision; image-rendering:optimizeQuality; fill-rule:evenodd; clip-rule:evenodd"
viewBox="0 0 42.565 41.866"
 xmlns:xlink="http://www.w3.org/1999/xlink"
 xmlns:xodm="http://www.corel.com/coreldraw/odm/2003">
 <defs>
  <style type="text/css">
   <![CDATA[
    .fil1 {fill:#2B2B2A}
    .fil0 {fill:#2B2B2A;fill-rule:nonzero}
   ]]>
  </style>
 </defs>
 <g id="Layer_x0020_1">
  <metadata id="CorelCorpID_0Corel-Layer"/>
  <g id="_105553572341376">
   <path class="fil0" d="M29.124 2.861l-5.769 6.144c-0.079,0.088 -0.103,0.208 -0.064,0.316 0.039,0.109 0.136,0.191 0.256,0.217l2.466 0.012 -1.537 4.682c-0.044,0.15 0.029,0.307 0.176,0.379 0.147,0.073 0.329,0.04 0.436,-0.079l5.768 -6.144c0.037,-0.04 0.062,-0.087 0.074,-0.137 0.015,-0.059 0.012,-0.12 -0.009,-0.179 -0.039,-0.109 -0.136,-0.19 -0.256,-0.216l-2.467 -0.013 1.538 -4.682c0.043,-0.148 -0.029,-0.307 -0.176,-0.379 -0.147,-0.072 -0.329,-0.039 -0.436,0.079zm3.085 10.611c-1.104,1.499 -2.244,3.01 -2.374,5.455l-5.459 0c-0.13,-2.445 -1.269,-3.956 -2.373,-5.455 -1.146,-1.556 -2.229,-3.025 -2.229,-5.498 0,-3.552 2.518,-7.039 7.332,-7.039 4.813,0 7.331,3.487 7.331,7.039 0,2.473 -1.082,3.942 -2.228,5.498zm1.048 -11.004c-1.548,-1.615 -3.675,-2.468 -6.151,-2.468 -2.476,0 -4.603,0.853 -6.152,2.468 -1.422,1.482 -2.205,3.368 -2.205,5.506 0,2.758 1.221,4.416 2.403,6.02 1.137,1.544 2.211,2.966 2.211,5.401 0,0.124 0.054,0.243 0.15,0.33 0.096,0.088 0.227,0.137 0.363,0.137l6.46 0c0.283,0 0.512,-0.209 0.512,-0.467 0,-2.435 1.075,-3.857 2.212,-5.401 1.181,-1.604 2.403,-3.262 2.403,-6.02 0,-2.138 -0.783,-4.024 -2.206,-5.506zm-4.305 21.582l-3.692 0c-0.283,0 -0.513,-0.21 -0.513,-0.468 0,-0.258 0.23,-0.468 0.513,-0.468l3.692 0c0.283,0 0.512,0.21 0.512,0.468 0,0.258 -0.229,0.468 -0.512,0.468zm1.384 -1.396l-6.46 0c-0.283,0 -0.513,-0.21 -0.513,-0.468 0,-0.258 0.23,-0.467 0.513,-0.467l6.46 0c0.283,0 0.512,0.209 0.512,0.467 0,0.258 -0.229,0.468 -0.512,0.468zm0 -1.396l-6.46 0c-0.283,0 -0.513,-0.209 -0.513,-0.468 0,-0.258 0.23,-0.467 0.513,-0.467l6.46 0c0.283,0 0.512,0.209 0.512,0.467 0,0.259 -0.229,0.468 -0.512,0.468z"/>
   <path class="fil1" d="M0 23.409l8.602 0 0 15.306 -8.602 0 0 -15.306zm10.334 14.02l0 -12.793 5.754 0c2.439,0.436 4.878,1.759 7.317,3.294l4.469 0c2.023,0.121 3.083,2.172 1.115,3.52 -1.566,1.15 -3.634,1.084 -5.754,0.894 -1.462,-0.073 -1.524,1.891 0,1.898 0.53,0.042 1.105,-0.083 1.607,-0.083 2.647,-0.003 4.823,-0.509 6.157,-2.598l0.668 -1.563 6.648 -3.294c3.326,-1.095 5.689,2.383 3.239,4.805 -4.815,3.502 -9.752,6.384 -14.803,8.713 -3.668,2.231 -7.337,2.154 -11.002,0l-5.415 -2.793 0 0z"/>
  </g>
 </g>
</svg>
